<?xml version="1.0" encoding="UTF-8"?>
<svg width="28px" height="28px" viewBox="0 0 28 28" version="1.1" xmlns="http://www.w3.org/2000/svg" xmlns:xlink="http://www.w3.org/1999/xlink">
    <title>Without_Style_Left</title>
    <g id="Without_Style_Left" stroke="none" stroke-width="1" fill="none" fill-rule="evenodd">
        <path d="M14,0 C21.7319865,0 28,6.2680135 28,14 C28,21.7319865 21.7319865,28 14,28 C6.2680135,28 0,21.7319865 0,14 C0,6.2680135 6.2680135,0 14,0 Z M15.0295833,7.81958333 L9.67458333,13.1745833 C9.21958333,13.6295833 9.21958333,14.3645833 9.67458333,14.8195833 L15.0295833,20.1745833 C15.4845833,20.6295833 16.2195833,20.6295833 16.6745833,20.1745833 C17.1179167,19.7195833 17.1295833,18.9729167 16.6745833,18.5179167 L12.1479167,13.99125 L16.6745833,9.46458333 C17.1295833,9.00958333 17.1295833,8.27458333 16.6745833,7.81958333 C16.2195833,7.36458333 15.4845833,7.36458333 15.0295833,7.81958333 Z" id="Left" fill="#ffffff"/>
    </g>
</svg>